<svg aria-hidden="true" style="position: absolute; width: 0; height: 0; overflow: hidden;" version="1.1" xmlns="http://www.w3.org/2000/svg" xmlns:xlink="http://www.w3.org/1999/xlink">
<defs>
<symbol id="group-1" viewBox="0 0 16 32">
<path fill="#eac7ac" style="fill: var(--color1, #eac7ac)" d="M5.1 5.107c-0.174-0.261-0.073-1.256 0-1.721l2.244-1.438 2.092 2.048c0.087 0.617 0.27 2.161 0.305 3.399 0.044 1.547 1.329 2.615 1.7 3.421 0.296 0.645 0.37 2.607 0.37 3.508h-0.959c-0.152 0.951-0.497 3.068-0.654 3.922-0.196 1.068 0.087 1.111 0 1.787-0.070 0.54-1.22 3.029-1.787 4.205 1.22 0.683 3.678 2.283 3.748 3.225s-0.697 2.048-1.089 2.484l0.741 2.353-8.454-0.174c0.37-1.169 1.307-3.892 2.092-5.425s2.041-5.534 2.571-7.343c-0.087-0.645-0.182-3.087-0.218-4.227l-2.353 0.174c0.022-0.523 0.431-1.991 1.896-3.682s0.784-2.841 0.261-3.204c-0.306 0.145-0.583 0.248-0.741 0.306-0.414 0.153-0.828-0.501-0.937-0.763s-0.632-1.285-0.719-1.591c-0.087-0.305-0.022-0.654 0-0.719s0.109-0.218-0.109-0.545z"></path>
<path fill="#a08263" style="fill: var(--color2, #a08263)" d="M9.196 4.454c-0.61-0.283-1.787 0.937-2.615-0.632-0.261-0.283-1.046-0.24-1.068 0.174-0.017 0.331-0.61 1.046-0.741 1.155-0.174-0.035-0.080-0.719-0.174-0.85 0-2.288 1.177-2.724 1.983-2.876s1.547-0.109 3.116 0.806c1.411 0.823 1.896 5.033 1.46 6.558-0.248 0.867 0.022 1.388 0.234 1.662 0.048 0.056 0.093 0.107 0.133 0.153 0.037 0.040 0.063 0.066 0.069 0.080-0.021-0.025-0.044-0.052-0.069-0.080-0.036-0.038-0.083-0.089-0.133-0.153-0.654-0.756-1.995-2.293-2.326-2.838-0.296-0.488 0.058-2.244 0.131-3.159z"></path>
<path fill="#61472d" style="fill: var(--color3, #61472d)" d="M9.567 2.035c-0.767-0.61-2.034-0.254-2.571 0 2.048-0.675 3.072 1.896 3.116 2.941 0.035 0.837 0.479 2.266 0.697 2.876-0.174-1.22 0.131-2.135 0.174-3.007s-0.458-2.048-1.416-2.811z"></path>
<path fill="#34a853" style="fill: var(--color4, #34a853)" d="M4.425 15.783c0.070-0.767 1.569-2.513 2.31-3.29-0.732 1.534 0.363 2.353 1.002 2.571 0.029-0.138 0.083-0.318 0.065 0.065s0.109 3.036 0.174 4.314c-0.261 0.506-1.053 2.825-1.416 3.922l-0.915 2.832c-0.662-1.272-0.581-6.5-0.458-8.955-0.283-0.167-0.832-0.693-0.763-1.46z"></path>
<path fill="#34a853" style="fill: var(--color4, #34a853)" d="M10.918 14.302c0.287-0.065 0.859-0.24 0.871-0.429 0-0.002 0-0.004 0-0.006 0 0.002-0 0.004-0 0.006-0.044 1.325-0.328 4.323-1.111 5.767-0.98 1.809-0.588 2.549-0.109 3.138s2.724 3.464 1.416 5.97c0.138-0.494 0.2-1.669-0.654-2.418s-2.288-1.678-2.898-2.048c0.523-1.118 1.595-3.469 1.7-3.922 0.129-0.558 0.061-0.951 0.003-1.291l-0.003-0.016c-0.131-0.762 0.152-2.484 0.784-4.75z"></path>
<path fill="#2c9a4a" style="fill: var(--color5, #2c9a4a)" d="M5.928 17.396c-1.325-0.139-1.54-1.118-1.482-1.591 0 1.865 2.615 1.482 3.138 0 0 0.588-0.331 1.73-1.656 1.591z"></path>
<path fill="#2c9a4a" style="fill: var(--color5, #2c9a4a)" d="M8.477 24.238l0.566-1.22c1.186 0.513 3.436 2.333 2.991 5.514-0.002 0.015-0.004 0.029-0.006 0.042 0.002-0.014 0.004-0.028 0.006-0.042 0.063-0.54-0.289-1.898-2.207-3.357l-1.351-0.937z"></path>
<path fill="#d6b49b" style="fill: var(--color6, #d6b49b)" d="M6.865 8.724c-0.109 0.036-0.375 0.044-0.567-0.218-0.24-0.327-0.392-0.523-0.479-0.828 0.094 0.167 0.331 0.54 0.523 0.697 0.24 0.196 0.784 0.131 0.959 0 0.136-0.102 0.961-0.456 1.4-0.761 0.1-0.089 0.187-0.172 0.256-0.241-0.038 0.072-0.132 0.155-0.256 0.241-0.205 0.183-0.464 0.396-0.741 0.587 0.543 0.581 1.223 2.031-0.398 3.181 0.349-0.414 0.928-1.482 0.458-2.44-0.054-0.109-0.217-0.362-0.44-0.501-0.247 0.14-0.493 0.245-0.715 0.283z"></path>
<path fill="#d6b49b" style="fill: var(--color6, #d6b49b)" d="M10.874 14.52c0.105-1.604-0.944-2.382-1.482-2.571 1.612 1.569 1.002 1.307 1.198 2.571s-0.806 3.769-0.806 5.142c0 1.373-0.828 2.549-1.612 3.987-0.627 1.15-1.133 2.934-1.307 3.682 0.973-2.070 2.968-6.362 3.159-6.972 0.24-0.763 0.131-0.414 0.109-1.787s0.61-2.048 0.741-4.053z"></path>
<path fill="#d6b49b" style="fill: var(--color6, #d6b49b)" d="M8.147 33.067l3.928-4.694c-0.383 1.341-3.066 4.119-3.545 4.667l-0.383 0.027z"></path>
<path fill="#d6b49b" style="fill: var(--color6, #d6b49b)" d="M9.24 4.889c0.017-0.924-0.443-0.675-0.675-0.436 0.788 0 0.59 1.118 0.392 1.678 0.087-0.029 0.266-0.318 0.283-1.242z"></path>
<path fill="#f5d5bc" style="fill: var(--color7, #f5d5bc)" d="M7.824 16.329c-0.070-1.464 0.145-2.048 0.261-2.157-0.283 0.719-0.109 2.157 0.109 3.813s0 2.288-0.523 3.072c-0.418 0.628-1.656 4.169-2.222 5.861 0.227-1.063 1.779-5.454 2.527-7.517-0.022-0.414-0.083-1.608-0.153-3.072z"></path>
</symbol>
<symbol id="group-4" viewBox="0 0 16 32">
<path fill="#eac7ac" style="fill: var(--color1, #eac7ac)" d="M4.478 4.746l1.005 0.089c0 0.68-0.295 0.502-0.473 0.502-0.142 0 0.059 0.453 0.177 0.68l-0.709 1.034-1.123 2.482c0.443-0.295 2.866-0.295 3.723-0.266 0.686 0.024 1.763-0.404 2.216-0.62l2.689 0.148 1.448 0.886c0.098 0.502 0.295 1.737 0.295 2.659s-0.492 1.251-0.739 1.3l-2.127-1.536-0.118-1.33h-6.116l-1.034-0.148c-0.126 0.008-0.293 0.020-0.473 0.033-0.804 0.995 0.098 0.925 0.65 0.765l2.984-0.236 0.68 0.473c-1.359 1.034-5.525 0.857-5.762 0.295-0.189-0.449 0.079-0.975 0.236-1.182-0.325 0.059-0.591-0.177-0.798-0.384s-0.502 0.266-0.384 0.473c0.118 0.207 0.030 0.65-0.295 0.65s-0.443-0.473-0.325-1.005c0.118-0.532 0.65-0.561 1.005-0.561 0.284 0 0.768-0.079 0.975-0.118 0.189-0.26 1.438-2.295 2.039-3.28v-1.211l0.355-0.591z"></path>
<path fill="#eac7ac" style="fill: var(--color1, #eac7ac)" d="M10.357 4.037l0.945-0.118 0.975 0.414 1.3 1.773-0.266 1.123-1.241 1.005-1.33-0.177-0.975-1.182v-1.625l0.591-1.211z"></path>
<path fill="#eac7ac" style="fill: var(--color1, #eac7ac)" d="M7.521 16.801c0.213-0.307 0.837-1.783 1.123-2.482 1.448 0.138 4.343 0.467 4.343 0.68s-0.177 1.448-0.266 2.039c-1.822 0.049-5.413 0.071-5.2-0.236z"></path>
<path fill="#a08263" style="fill: var(--color2, #a08263)" d="M11.953 4.51c-0.047-0.331-0.532-0.355-0.768-0.325-0.912-0.182-1.020 0.714-0.931 1.375 0.22-0.067 0.614-0.148 0.724-0.016 0.148 0.177-0.148 0.177-0.236 0.118-0.071-0.047-0.345-0.020-0.472 0 0.009 0.051 0.019 0.101 0.029 0.148 0.148 0.65 0 1.034-0.059 1.33-0.047 0.236 0.177 0.65 0.295 0.827-0.024 0.496-0.936 0.758-1.389 0.827l-0.561-0.561c0.158-0.217 0.479-0.987 0.502-2.334 0.030-1.684 0.946-2.186 1.359-2.423 0.331-0.189 0.788 0 0.975 0.118 0.591-0.177 0.975-0.089 1.684 0.384s0.65 1.891 0.62 2.216c-0.030 0.325 0.059 0.443 0.355 1.241 0.236 0.638-0.098 1.172-0.295 1.359 0 0.213-0.236 0.384-0.355 0.443-0.071-0.26-0.798-0.62-1.152-0.768-0.095-0.284 0.039-0.808 0.118-1.034 0.213-0.118 0.364-0.404 0.414-0.532 0.020 0.020 0.118 0.047 0.355 0s0.197-0.611 0.148-0.886c-0.138-0.030-0.455-0.095-0.62-0.118-0.062-0.009-0.149-0.101-0.241-0.236-0.146-0.020-0.48-0.047-0.646 0s-0.187-0.059-0.177-0.118c0.144-0.059 0.495-0.142 0.748 0-0.192-0.32-0.386-0.779-0.423-1.034z"></path>
<path fill="#61472d" style="fill: var(--color3, #61472d)" d="M13.282 4.155c-0.544-0.733-1.467-0.66-1.861-0.532l-0.089 0.207c0.266 0 0.827 0.384 0.857 0.68 0.024 0.236 0.877 1.162 1.3 1.596 0.095 0.756-0.315 1.694-0.532 2.068 0.886-0.591 1.005-3.102 0.325-4.018z"></path>
<path fill="#61472d" style="fill: var(--color3, #61472d)" d="M11.273 3.83l0.089-0.236c-1.33-0.709-1.861 0.916-1.98 1.3s-0.030 1.625 0 2.364c0.024 0.591-0.345 1.054-0.532 1.211 0.414 0.059 0.945-1.684 0.857-2.364s0.443-2.068 0.68-2.039c0.189 0.024 0.67-0.148 0.886-0.236z"></path>
<path fill="#f5d5bc" style="fill: var(--color7, #f5d5bc)" d="M4.862 5.012c-0.142-0.118-0.315-0.049-0.384 0-0.443 0.059-0.236 1.211-0.266 1.625-0.024 0.329-1.063 1.68-1.588 2.325-0.003 0.004-0.006 0.008-0.008 0.010 0.003-0.003 0.005-0.006 0.008-0.010 0.137-0.188 1.322-2.48 1.351-2.797 0.030-0.325-0.384-1.3-0.207-1.3 0.142 0 0.414-0.591 0.532-0.886 0.059-0.010 0.254-0.024 0.561 0 0.384 0.030 0.62 0.768 0.62 0.886s-0.443 0.295-0.62 0.148z"></path>
<path fill="#f5d5bc" style="fill: var(--color7, #f5d5bc)" d="M0.164 10.449c0.069-0.286 0.278-0.851 0.561-0.827 0.347 0.029 1.205 0.285 1.546 0.295 0.007 0 0.014 0 0.020 0-0.007 0-0.013-0-0.020-0-0.541-0.007-1.687 0.089-2.107 0.532z"></path>
<path fill="#f5d5bc" style="fill: var(--color7, #f5d5bc)" d="M9.973 8.351c-0.355 0.142-1.507 0.611-2.039 0.827 1.359-0.443 2.039-0.207 2.482-0.266s0.502 0.414 1.389 0.502l0.043 0.004c0.846 0.084 0.907 0.091 1.198 0.468 0.295 0.384-0.384 0.857-0.295 1.359 0.071 0.402 0.62 0.916 0.886 1.123 0.197-0.256 0.514-1.070 0.207-2.275-0.384-1.507-1.418-1.507-1.921-1.743s-1.507-0.177-1.95 0z"></path>
<path fill="#f5d5bc" style="fill: var(--color7, #f5d5bc)" d="M9.205 11.808c-0.236-0.118-0.098-0.64 0-0.886 0.502-0.059 0.325 0.148 0.355 0.443s-0.059 0.591-0.355 0.443z"></path>
<path fill="#f5d5bc" style="fill: var(--color7, #f5d5bc)" d="M7.521 16.772c0.071-0.402 0.502-1.664 0.709-2.246 0.158-0.079 0.479-0.189 0.502 0 0.030 0.236-0.295 0.739-0.502 1.064-0.165 0.26-0.542 0.896-0.709 1.182z"></path>
<path fill="#f5d5bc" style="fill: var(--color7, #f5d5bc)" d="M9.678 17.067c-0.236-0.615-0.177-1.95-0.118-2.541 1.024 0.128 3.049 0.479 2.955 0.857-0.118 0.473-2.541 2.452-2.837 1.684z"></path>
<path fill="#d6b49b" style="fill: var(--color6, #d6b49b)" d="M4.655 6.401c0.142-0.425 0.414-0.374 0.532-0.295 0.030 0.207-0.68 1.152-0.916 1.921-0.189 0.615-0.355 1.142-0.414 1.33l-0.57 0.2c-0.008 0.009-0.015 0.010-0.021 0.007l0.021-0.007c0.022-0.023 0.051-0.098 0.068-0.288 0.030-0.325 1.123-2.334 1.3-2.866z"></path>
<path fill="#d6b49b" style="fill: var(--color6, #d6b49b)" d="M0.696 10.803c0.071 0.024 0.699-0.010 1.005-0.030-0.049-0.010-0.171-0.035-0.266-0.059-0.118-0.030-0.384-0.325-0.68-0.295s-0.148 0.355-0.059 0.384z"></path>
<path fill="#d6b49b" style="fill: var(--color6, #d6b49b)" d="M8.348 11.66c-0.425-0.095-1.812 0.335-2.452 0.561 1.389-1.034 0-0.857-0.266-0.857s-2.6 0.414-2.866 0.148c-0.266-0.266 0.177-0.62 0.384-0.857s1.123 0.059 1.507 0.118c0.384 0.059 1.241-0.414 2.039-0.709s1.477-0.118 2.157 0.295c0.68 0.414 1.714 0.148 2.452-0.059s0.709 0.295 0.414 0.591c-0.236 0.236-1.261 0.158-1.743 0.089l-0.414 0.68c0.047-0.709-0.256-0.749-0.414-0.68-0.089 0.266-0.372 0.774-0.798 0.68z"></path>
<path fill="#d6b49b" style="fill: var(--color6, #d6b49b)" d="M12.337 7.731c-0.047 0.071-0.079 0.502-0.089 0.709-0.615-0.284-1.497-0.256-1.861-0.207 0.165-0.165 0.069-0.542 0-0.709 0.118 0.197 0.467 0.591 0.916 0.591s0.877-0.256 1.034-0.384z"></path>
<path fill="#d6b49b" style="fill: var(--color6, #d6b49b)" d="M8.614 15.442c-0.189 0.307-0.453 0.995-0.561 1.3 0.266 0.049 0.798 0.106 0.798-0.059s0.355-1.546 0.532-2.216c-0.079-0.089-0.236-0.213-0.236 0 0 0.266-0.295 0.591-0.532 0.975z"></path>
<path fill="#2c9a4a" style="fill: var(--color5, #2c9a4a)" d="M8.407 11.542c-0.544 0.638-0.66 1.408-0.65 1.714 0.378 0.118 1.064-1.467 1.359-2.275l-0.709 0.561z"></path>
<path fill="#2c9a4a" style="fill: var(--color5, #2c9a4a)" d="M8.082 14.674c0.095-0.118 0.098-0.404 0.089-0.532l1.123-0.886c0.187 0.197 0.626 0.626 0.886 0.768 0.325 0.177 1.152-0.532 1.655-0.768s0.739 0.207 0.798 0.532c0.047 0.26 0.453 0.542 0.65 0.65-0.079 0.187-0.242 0.609-0.266 0.798-0.030 0.236-1.684 0.236-2.925-0.236-0.993-0.378-1.753-0.374-2.009-0.325z"></path>
<path fill="#2c9a4a" style="fill: var(--color5, #2c9a4a)" d="M10.948 24.75c-0.189-0.52-0.926-1.517-1.271-1.95 1.596 0 2.955 4.314 3.191 5.171 0.189 0.686 1.911 3.26 2.748 4.462-0.414-0.512-1.46-1.832-2.334-3.014-1.093-1.477-2.098-4.018-2.334-4.668z"></path>
<path fill="#34a853" style="fill: var(--color4, #34a853)" d="M8.88 11.483c0.071-0.024 0.207-0.325 0.266-0.473-0.142 0.544 0.020 0.798 0.118 0.857-0.059 0.384 0.207 0.532 0.384 1.152 0.142 0.496 1.379 0.463 1.98 0.384-0.158 0.158-0.615 0.514-1.182 0.68-0.709 0.207-1.182-0.857-1.182-0.68s-0.443 0.591-0.443 0.739c0 0.118-0.433 0.108-0.65 0.089-0.355-0.473-0.423-0.906-0.414-1.064 0.473-0.177 1.034-1.655 1.123-1.684z"></path>
<path fill="#34a853" style="fill: var(--color4, #34a853)" d="M12.662 16.772c-0.331-0.142-3.526-0.138-5.082-0.118-1.566 1.98-1.802 6.737-1.418 7.83s1.064 4.491 1.064 6.087c0 1.276 0.355 3.29 0.532 4.137h1.684c-0.207-0.837-0.656-2.665-0.798-3.28s0.059-2.167 0.177-2.866c0.148-0.64 0.479-2.405 0.62-4.343 0.177-2.423 0.443-1.271 1.005-0.827s2.068 4.462 3.309 6.471c0.993 1.607 2.955 3.9 3.812 4.845 0.404-0.364 1.141-1.117 0.857-1.211-0.355-0.118-3.28-4.55-3.427-5.643s-1.507-2.6-2.098-3.811c-0.591-1.211-0.236-3.25-0.384-4.432s-1.034-1.536-1.064-2.275c-0.024-0.591 0.798-0.62 1.211-0.561z"></path>
<path fill="#47bc67" style="fill: var(--color8, #47bc67)" d="M10.86 11.069l-0.886-0.089c-0.049 0.049-0.177 0.225-0.295 0.532s-0.345 0.364-0.443 0.355c-0.473 1.921 2.216 1.655 2.6 1.448s0.62 0.118 0.65 0.414c0.024 0.236 0.522 0.611 0.768 0.768 0.118-0.213 0.266-1.074 0.325-1.477-0.532 0.443-1.625-0.443-2.009-0.739-0.307-0.236-0.601-0.906-0.709-1.211z"></path>
<path fill="#47bc67" style="fill: var(--color8, #47bc67)" d="M11.303 17.57c-0.071-0.945 0.955-0.945 1.477-0.827 0.158 0.936 0.538 3.014 0.798 3.841 0.325 1.034 1.182 2.63 1.211 4.048 0.024 1.135 0.975 3.683 1.448 4.816 0.945 0.879 2.147 3.38 2.63 4.521-1.162-1.142-3.504-3.646-3.575-4.521-0.089-1.093-0.68-2.393-1.714-3.575s-1.093-3.014-1.093-5.289c0-2.275-1.093-1.832-1.182-3.014z"></path>
<path fill="#47bc67" style="fill: var(--color8, #47bc67)" d="M8.644 27.29c0-0.756 0.571-2.403 0.857-3.132 0.561 2.246 0 7.239 0 7.712 0 0.378 0.118 2.403 0.177 3.368-0.709-0.739-1.241-3.871-1.241-4.136s0.207-2.866 0.207-3.812z"></path>
</symbol>
<symbol id="group-2" viewBox="0 0 16 32">
<path fill="#a08263" style="fill: var(--color2, #a08263)" d="M5.393 11.83c-0.74-2.327 0.194-8.436 1.648-11.733 0-0.853 4.59-0.743 6.885-0.582 0.155 1.474-3.62 7.661-5.527 10.57l0.776 3.103-1.455 4.364c-0.194-1.358-1.648-3.588-2.327-5.721z"></path>
<path fill="#61472d" style="fill: var(--color3, #61472d)" d="M7.702-0.44c0.039-0.082 0.078-0.162 0.116-0.239l0.776 0.194c-0.109 0.096-0.46-0.025-0.892 0.045-0.739 1.558-1.578 4.092-1.85 6.96 0.422 3.613 1.495 7.896 1.966 9.674-1.889-3.069-2.261-6.567-1.966-9.674-0.215-1.841-0.261-3.507 0.027-4.581 0.492-1.835 1.234-2.284 1.823-2.379z"></path>
<path fill="#eac7ac" style="fill: var(--color1, #eac7ac)" d="M13.937 2.747c1.559-0.289 2.635-1.323 2.977-1.804 0.445-0.529 1.458-1.343 1.949-0.361s-0.313 1.973-0.776 2.346c-1.732 1.588-4.247 2.105-5.287 2.165v1.011l1.137 1.624-6.947 1.408 0.361-1.895c-0.571 0.156-1.873 0.863-2.508 2.436-0.794 1.967-2.021 3.663-2.49 3.916s-1.534-0.451-2.111-0.686c-0.577-0.235-2.274-1.696-2.472-2.165-0.125-0.296-0.012-0.551 0.106-0.699-0.549 0.515-1.111 0.161-1.333-0.095-0.433 0.144-1.083-0.325-0.614-0.541s1.768-0.668 2.256-0.271c0.487 0.397 1.083 0.704 1.714 1.029 0.505 0.26 1.498 0.493 1.931 0.577 0.307-0.74 2.274-2.851 3.014-4.259s3.032-2.4 3.104-3.104c0.058-0.563 0.192-2.617 0.253-3.573 1.612 0.162 5.626-0.334 5.035 0.388s-2.364 3.576-2.707 4.412c0.487-0.499 1.851-1.57 3.411-1.859z"></path>
<path fill="#eac7ac" style="fill: var(--color1, #eac7ac)" d="M9.029 14.405c0.664-0.967 0.012-2.845-0.397-3.663 1.221-0.192 3.764-0.523 4.168-0.307s0.168 3.194 0 4.656l-3.771-0.686z"></path>
<path fill="#eac7ac" style="fill: var(--color1, #eac7ac)" d="M14.226 29.599c-0.101-1.574-2.977-4.024-4.403-5.053-0.944-2.623-1.584-6.962 3.411-3.338s4.535 8.68 3.681 10.755l-2.689 0.686c0.042-0.361 0.101-1.476 0-3.050z"></path>
<path fill="#eac7ac" style="fill: var(--color1, #eac7ac)" d="M4.12 32.215l1.227-7.669c1.347 0.090 4.042 0.462 4.042 1.227s-1.6 4.614-2.4 6.442h-2.869z"></path>
<path fill="#f5d5bc" style="fill: var(--color7, #f5d5bc)" d="M6.629 3.722c1.198-0.419 1.474-1.642 1.462-2.201 0.722 1.624-0.938 3.104-1.281 3.176s-2.526 2.454-2.761 3.032c-0.155 0.382-0.979 1.465-1.576 2.216-0.145 0.252-0.265 0.411-0.337 0.419 0.097-0.119 0.212-0.261 0.337-0.419 0.544-0.945 1.448-3.197 1.576-3.696 0.162-0.632 1.083-2.003 2.58-2.526z"></path>
<path fill="#f5d5bc" style="fill: var(--color7, #f5d5bc)" d="M12.511 15.144c0.159-0.909 0.283-3.567 0.325-4.782l0.614 0.253c0.006 0.349 0.014 1.144 0 1.534s-0.271 2.268-0.397 3.158l-0.541-0.162z"></path>
<path fill="#f5d5bc" style="fill: var(--color7, #f5d5bc)" d="M17.005 26.368c-0.361-0.649-2.027-3.507-2.815-4.854-0.415 1.498 0.848 2.382 2.021 3.988 0.938 1.285 1.185 3.326 1.191 4.186 0.318-1.761-0.132-2.947-0.397-3.32z"></path>
<path fill="#f5d5bc" style="fill: var(--color7, #f5d5bc)" d="M4.427 30.934l0.812-7.507c0.054 0 0.224 0.195 0.469 0.974s-0.752 4.68-1.281 6.532z"></path>
<path fill="#f5d5bc" style="fill: var(--color7, #f5d5bc)" d="M13.053 2.874c1.602-0.029 2.869-0.914 3.302-1.353-0.415 1.047-2.274 1.588-3.519 1.931s-2.177 1.503-2.303 1.106c-0.101-0.318 0.234-0.607 0.318-0.71 0.066-0.313 0.599-0.946 2.201-0.974z"></path>
<path fill="#d6b49b" style="fill: var(--color6, #d6b49b)" d="M2.424 13.556c0.054-0.045 0.114-0.095 0.179-0.151 0.619-0.66 1.596-2.888 2.122-4.088l0.009-0.020c0.577-1.317 1.119-1.624 2.147-1.967s0.505 0.126 0.379 1.029c-0.101 0.722-0.391 1.023-0.523 1.083l-0.505-0.812c-0.295 0.547-1.007 1.83-1.498 2.58-0.444 0.679-1.513 1.666-2.131 2.195-0.064 0.068-0.124 0.119-0.179 0.151z"></path>
<path fill="#d6b49b" style="fill: var(--color6, #d6b49b)" d="M8.090 14.729c0.881-1.574 0.211-3.002-0.235-3.519-0.108-0.541-0.076-1.353 0.92-0.271s0.692 2.845 0.415 3.591l-1.101 0.198z"></path>
<path fill="#d6b49b" style="fill: var(--color6, #d6b49b)" d="M17.059 3.938c-1.097 0.953-4.024 1.498-4.259 1.299-1.48 0.144 3.988-1.534 5.287-2.833 1.039-1.039 1.383-0.89 1.426-0.686-0.246 0.895-1.738 1.853-2.454 2.22z"></path>
<path fill="#d6b49b" style="fill: var(--color6, #d6b49b)" d="M7.675 30.537c0.066-0.14 0.138-0.293 0.214-0.457 0.344-1.062 0.883-3.701 1.157-5.155 0.213-0.209 0.575-0.476 0.763-0.364 0.015-0.174 0.231-0.226 0.933 0.165 1.389 0.776 3.573 3.555 3.573 4.313-0.848-1.047-2.912-3.335-4.385-4.114-0.013 0.645-1.256 3.467-2.041 5.155-0.086 0.265-0.16 0.431-0.214 0.457z"></path>
<path fill="#d6b49b" style="fill: var(--color6, #d6b49b)" d="M9.498 2.567c-0.606-0.448-1.155-1.041-1.353-1.281 0.138 0.108 0.621 0.458 1.444 0.992s2.183-0.559 2.761-1.173c-0.325 0.433-2.093 2.021-2.851 1.462z"></path>
<path fill="#47bc67" style="fill: var(--color8, #47bc67)" d="M9.462 7.169c0.274-1.458-1.582-2.965-2.544-3.537 0.812-0.776 1.967 1.209 3.699 2.526s1.895 1.263 1.895 0.379c0-0.884-1.482-2.406-1.591-2.658-0.087-0.202 0.219-0.181 0.291-0.247 0.409 0.481 1.199 1.819 1.3 2.021s1.245 1.78 1.805 2.544c-0.204 0.006-0.79 0.22-1.498 1.029-0.884 1.011-2.129-0.451-2.977-0.451s-2.544 1.66-2.707 1.371c-0.13-0.231-0.595-0.926-0.812-1.245 0.932 0.030 2.866-0.274 3.14-1.732z"></path>
<path fill="#47bc67" style="fill: var(--color8, #47bc67)" d="M13.269 13.791c-1.112-1.371-3.591-0.992-4.692-0.632 0 0.289-0.192 0.866-0.289 1.119 3.32-0.39 4.523 1.077 4.71 1.859 0.144-0.678 0.241-1.847 0.271-2.346z"></path>
<path fill="#34a853" style="fill: var(--color4, #34a853)" d="M8.235 11.914c-0.101-0.231-0.788-1.311-1.119-1.823 0.144 0.126 1.805-1.083 2.238-1.299s0.812-0.325 1.57 0.343c0.758 0.668 1.678 0.18 1.931-0.217 0.202-0.318 1.023-0.734 1.408-0.902 0.066 0.078 0.217 0.343 0.289 0.776 0.090 0.541-0.74 1.389-0.902 1.552-0.129 0.129-0.138 0.613-0.127 0.843 0 0.002 0 0.003 0 0.005-0-0.002-0-0.003-0-0.005-0.007-0.070-0.169-0.245-0.776-0.428-0.621-0.188-3.266 0.692-4.511 1.155z"></path>
<path fill="#34a853" style="fill: var(--color4, #34a853)" d="M5.384 17.743c1.357-1.487 2.538-2.989 2.959-3.555 3.551-0.202 4.583 1.215 4.656 1.949 0.115 0.693-0.481 1.732-0.794 2.165l2.057 3.483c-0.231 2.194-2.514 3.441-3.627 3.789l-0.758-0.668-0.523 1.426c-1.054-1.025-3.338-1.101-4.349-1.011 0.361-1.606-0.036-2.851-0.217-3.537s-1.101-2.184 0.595-4.042z"></path>
<path fill="#2c9a4a" style="fill: var(--color5, #2c9a4a)" d="M13.486 11.445c-0.577-0.606-3.681 0.205-5.161 0.686l-0.198-0.469c1.107-0.331 3.512-1.014 4.277-1.101s1.041 0.277 1.083 0.469v0.415z"></path>
<path fill="#2c9a4a" style="fill: var(--color5, #2c9a4a)" d="M6.881 21.352c-1.819-1.574-1.251-3.615-0.74-4.439-0.74 2.581 0.74 3.88 1.823 4.962 0.659 0.658 1.268 1.693 1.647 2.436 1.49-0.62 4.51-2.003 4.669-2.58-0.006 0.914-0.74 2.97-3.627 3.88l-0.758-0.704-0.487 1.444c-0.837-0.794-3.248-1.053-4.349-1.083v-0.686l4.836 0.325c-0.247-0.529-1.195-1.981-3.014-3.555z"></path>
</symbol>
<symbol id="group-3" viewBox="0 0 16 32">
<path fill="#eac7ac" style="fill: var(--color1, #eac7ac)" d="M8.36 6.3l2.648-2.444 1.969 0.611 0.984 2.173-0.815 3.055-2.139 1.765 0.288 0.951c1.16-0.294 3.589-0.557 4.024 0.747 0.543 1.629 0 3.53 0 4.277s-0.407 2.139-0.373 3.123c0.034 0.985 0.407 2.478 0 4.481s-0.373 3.225 0 3.734c0.373 0.509 1.562 1.799 1.697 3.395-0.487 0.283-1.507 0.679-1.697 0-0.238-0.849-0.509-1.392-0.984-2.071s-0.373-2.139-0.306-3.598c0.068-1.46-0.543-6.077-0.272-7.265 0.217-0.951-0.679-2.886-1.154-3.734l-1.222 3.157c-0.124 1.528-0.367 4.943-0.339 6.382l-4.176-1.188c0.26-1.414 0.679-4.474 0.272-5.398s-1.098-2.557-1.392-3.259c-0.294-0.487-0.869-0.896-0.815 1.358 0.068 2.818-0.407 6.925-0.577 7.91s-1.256 4.515-1.256 5.635c0 0.896 0.113 1.754 0.17 2.071l-0.373 0.849-0.577-1.697c0.26-1.448 0.781-4.508 0.781-5.16 0-0.815-0.204-2.58-0.204-3.462s0.204-2.173 0.204-2.953 0.475-4.142 0.475-4.956c0-0.815 0.543-2.308 1.358-2.376s1.12-0.068 1.663-0.238c0.435-0.136 1.607-3.972 2.139-5.873z"></path>
<path fill="#eac7ac" style="fill: var(--color1, #eac7ac)" d="M3.403 29.249c-0.163-0.679 0.317-2.342 0.577-3.089 1.278-0.339 3.53 2.275 3.904 3.089 0.299 0.652 0.939 2.942 1.222 4.006l-4.549 0.204c-0.317-1.12-0.991-3.531-1.154-4.21z"></path>
<path fill="#eac7ac" style="fill: var(--color1, #eac7ac)" d="M10.838 33.017c-0.366-0.625-0.447-2.772-0.441-3.768 0.747-0.498 2.261-1.405 2.342-1.052s1.256 3.361 1.833 4.821c-1.092 0.26-3.368 0.625-3.734 0z"></path>
<path fill="#d6b49b" style="fill: var(--color6, #d6b49b)" d="M5.882 22.832c0.38-1.005 0.158-2.727 0-3.462-0.032-0.163 0.733-0.34 1.12-0.407 0.272 2.987-0.113 4.413-0.339 4.753l-0.781-0.883z"></path>
<path fill="#d6b49b" style="fill: var(--color6, #d6b49b)" d="M10.634 24.971c-0.435-1.901 0.068-5.092 0.373-6.45l2.139 0.577c-0.326 1.249-0.045 3.983 0.136 5.194l-2.648 0.679z"></path>
<path fill="#d6b49b" style="fill: var(--color6, #d6b49b)" d="M10.397 10.917c-0.679-0.054-1.324-1.064-1.562-1.562l-0.306 0.679c0.136 0.679 1.166 1.392 1.663 1.663v-0.713c0.788 0.19 1.233-0.147 1.358-0.339-0.102 0.113-0.475 0.326-1.154 0.272z"></path>
<path fill="#d6b49b" style="fill: var(--color6, #d6b49b)" d="M8.903 33.153c0-0.597-0.747-2.897-1.12-3.972 0.95 0.238 2.852 0.774 2.852 1.018s0.204 2.071 0.306 2.953c-0.19-0.462-1.256-1.867-1.765-2.512 0.109 0.76-0.136 1.992-0.272 2.512z"></path>
<path fill="#d6b49b" style="fill: var(--color6, #d6b49b)" d="M13.146 20.626c0-0.652 0.204-1.516 0.306-1.867-0.238 1.324 0.136 4.821 0.238 5.533s0.136 4.142 0.136 4.888c0 0.597 0.317 1.086 0.475 1.256-0.306-0.204-0.611-0.034-0.475 0.407s-0.034 0.815-0.136 1.222c-0.102 0.407-0.238-0.034-0.407-0.984s-0.136-1.765 0-2.41 0.238-3.734 0.17-4.142c-0.068-0.407-0.306-3.089-0.306-3.904z"></path>
<path fill="#d6b49b" style="fill: var(--color6, #d6b49b)" d="M4.625 14.889c0.244-0.407 0.577-0.079 0.713 0.136-0.679 0.136-0.238 3.496-0.204 4.074s-0.407 4.176-0.713 5.194c-0.306 1.018-1.052 3.395-1.358 4.379-0.244 0.788-0.306 2.388-0.306 3.089-0.091-1.030-0.136-3.354 0.407-4.413 0.679-1.324 0.883-5.092 1.086-6.959s0.068-4.99 0.373-5.499z"></path>
<path fill="#f5d5bc" style="fill: var(--color7, #f5d5bc)" d="M2.724 20.83c-0.023 0.061-0.048 0.132-0.075 0.209-0.24 1.011 0.089 4.248 0.245 5.155 0.17 0.985-0.815 4.549-0.815 4.956 0 0.326 0.249 1.086 0.373 1.426h-0.373c-0.645-0.815-0.543-1.222-0.238-2.037s0.238-2.275 0.238-3.055v-3.972c0-0.679 0.343-1.825 0.57-2.473 0.021-0.087 0.046-0.158 0.075-0.209z"></path>
<path fill="#f5d5bc" style="fill: var(--color7, #f5d5bc)" d="M7.681 18.25c0.326-0.272 0.837-1.539 1.052-2.139-0.136 0.869 0.713 1.629 1.154 1.901-0.283 0.328-0.91 1.276-1.154 2.444s0.102 3.497 0.306 4.515l-1.528-0.577c0.158-0.95 0.496-3.137 0.577-4.277s-0.238-1.72-0.407-1.867z"></path>
<path fill="#f5d5bc" style="fill: var(--color7, #f5d5bc)" d="M15.523 17.401c0.136-0.679 0.057-2.456 0-3.259-0.317 1.697-0.896 5.418-0.679 6.722 0.272 1.629 0.102 3.055-0.102 4.447s-0.272 2.682 0 3.361c0.272 0.679 0.984 1.358 1.12 2.071 0.109 0.57 0.52 1.188 0.713 1.426-0.011-0.52-0.238-1.813-1.052-2.818-1.018-1.256-0.883-2.614-0.373-4.142s0.034-3.666 0-4.515c-0.034-0.849 0.204-2.444 0.373-3.293z"></path>
<path fill="#f5d5bc" style="fill: var(--color7, #f5d5bc)" d="M4.014 33.662c-1.195-2.471-0.883-4.628-0.577-5.398 0 1.086 0.996 3.893 1.494 5.16l-0.917 0.237z"></path>
<path fill="#34a853" style="fill: var(--color4, #34a853)" d="M5.033 15.432c0-0.434 0.86-2.218 1.29-3.055 0 0.509-0.204 1.052-0.543 1.765s-0.102 1.426 0.339 2.308c0.353 0.706 1.075 1.448 1.392 1.731-0.611 0.396-1.915 1.046-2.241 0.475-0.407-0.713-0.238-2.682-0.238-3.225z"></path>
<path fill="#34a853" style="fill: var(--color4, #34a853)" d="M10.906 17.469c0.706-0.842 0.905-3.225 0.917-4.311 0.17 0.238 1.562 4.040 1.494 5.024-0.054 0.788-1.743 0.645-2.58 0.475-0.238-0.045-0.536-0.346 0.17-1.188z"></path>
<path fill="#34a853" style="fill: var(--color4, #34a853)" d="M8.020 23.749c-0.815-0.19-1.697-0.917-2.037-1.256-0.326 0.462-0.769 1.46-0.951 1.901 0.509 1.222 8.283 2.139 8.283 1.052 0-0.869-0.158-1.629-0.238-1.901-0.102 0.339-1.629 0.509-2.173 0.509s-1.867-0.068-2.886-0.306z"></path>
<path fill="#2c9a4a" style="fill: var(--color5, #2c9a4a)" d="M6.866 18.318c0.57-0.136 1.46-0.781 1.833-1.086 0.317 0.328 1.025 1.005 1.324 1.086 0.272 0.074 0.508-0.239 0.616-0.45 0.008-0.019 0.018-0.039 0.029-0.060-0.008 0.018-0.018 0.039-0.029 0.060-0.287 0.691 1.339 0.753 2.066 0.687 0.597-0.054 0.611-0.724 0.543-1.052 0.244 0.652 0.215 1.403 0.17 1.697-0.883 0.407-2.614-0.068-3.055-0.272s-0.611-0.441-0.713-0.543c-0.102-0.102-0.713-0.781-0.95-0.815s-0.645 0.747-0.883 0.984c-0.238 0.238-0.407 0.713-1.222 1.052s-1.358-0.373-1.358-0.611v-0.441c0.102 0.102 0.917-0.068 1.629-0.238z"></path>
<path fill="#2c9a4a" style="fill: var(--color5, #2c9a4a)" d="M4.184 26.329c-0.054-0.597 0.543-1.539 0.849-1.935 0 0.204 1.528 0.713 4.108 1.188 2.064 0.38 3.644 0.045 4.175-0.17l-0.068 3.191c-0.6 0.339-1.826 1.045-1.935 1.154-0.136 0.136-0.883 0.645-1.086 0.883-0.163 0.19-0.407 0.147-0.509 0.102-0.339 0.102-0.577 0.102-0.679 0s-1.494-1.358-1.697-1.426-3.089-2.241-3.157-2.987z"></path>
<path fill="#a08263" style="fill: var(--color2, #a08263)" d="M12.094 4.467c-0.19-0.19-0.668-0.125-0.883-0.068-0.645-0.238-1.222 0.883-1.222 1.052s-1.12 1.018-1.358 1.188c-0.238 0.17-0.509 0.645-0.238 1.086s0.611 1.222 0.713 1.629c0.102 0.407-0.645 1.358-0.713 1.799-0.039 0.252 0.312 0.611 0.647 0.882 0.191 0.085 0.338 0.173 0.371 0.272-0.104-0.068-0.236-0.163-0.371-0.272-0.398-0.176-0.985-0.336-1.123-0.543-0.204-0.306 0-0.577 0-1.12s-0.713 1.086-1.018 1.562c-0.244 0.38-0.509 0.769-0.611 0.917l-0.815-0.441c-0.984 0.102-1.63 0.306-1.935 0.917s-0.373 2.003-0.509 2.648c-0.109 0.516-0.837 0.803-1.188 0.883 0.543-0.611 0.204-2.58 0.509-2.784s0.509-0.849 0.475-1.358c-0.034-0.509-0.034-1.154 0.543-1.562s0.407-0.781 0.475-1.799c0.054-0.815 1.245-1.562 1.833-1.833 0.068-0.147 0.224-0.679 0.306-1.629 0.102-1.188 1.596-1.901 1.935-1.901s0.883-0.611 1.086-0.917c0.204-0.306 0.747-0.306 1.901-0.441 0.923-0.109 1.788 0.724 2.105 1.154 0.713-0.102 1.392 1.256 1.392 2.105s0.917 2.58 0.747 2.852c-0.17 0.272-0.883 1.629-0.373 2.41 0.407 0.625 0.419 1.233 0.373 1.46-0.136-0.034-0.577 0.238-0.577 0.339s-0.441 0.611-0.611 0.679c-0.17 0.068-0.238 0.407 0.17 0.883s0.102 1.765 0.136 2.342c0.027 0.462 0.69 0.69 1.018 0.747-0.238 0.102-0.747 0.244-0.883 0-0.17-0.306-0.441-0.306-0.679-0.238s-0.238 0.781 0.136 0.815c0.299 0.027 0.736 0.102 0.917 0.136v0.373c-0.17-0.068-0.591-0.183-0.917-0.102-0.294 0.074-0.242 0.522-0.162 0.8 0.014 0.023 0.023 0.051 0.026 0.083-0.009-0.025-0.018-0.053-0.026-0.083-0.105-0.178-0.487-0.137-0.687-0.087 0.057-0.181 0.17-0.597 0.17-0.815 0-0.272-1.731-2.716-2.342-3.157s-0.339-1.731-0.238-2.105c0.102-0.373-0.272-0.373-0.306-0.204s-0.543 0.679-0.883 0.917c-0.339 0.238-1.426 0.577-0.781 1.663 0.516 0.869 1.188 0.475 1.46 0.17-0.238 0.679-1.154 0.611-1.46 0.204s-0.407-0.713-0.339-1.46c0.068-0.747 1.12-1.426 1.46-1.663s0.102-0.645 0.238-0.781c0.109-0.109 0.158-0.815 0.17-1.154 0.023 0.023 0.19 0.075 0.679 0.102 0.611 0.034 0.883-0.441 1.018-0.645s1.018-1.188 1.154-1.426c0.136-0.238 0.034-1.086 0.17-1.426 0.044-0.11 0.088-0.231 0.128-0.373 0.010-0.034-0.433-0.102-0.603-0.068-0.136 0.027-0.147-0.17-0.136-0.272 0.192-0.068 0.624-0.163 0.814 0 0.042-0.243 0.068-0.54 0.068-0.917 0-0.849-0.441-1.086-0.577-1.256s-0.543 0.068-0.781-0.17z"></path>
<path fill="#a08263" style="fill: var(--color2, #a08263)" d="M11.109 6.063c-0.299-0.136-0.871 0.057-1.12 0.17 0.815-0.136 1.12 0.17 1.154 0.204s0.577 0.441 0.679 0.306c0.102-0.136-0.339-0.509-0.713-0.679z"></path>
<path fill="#61472d" style="fill: var(--color3, #61472d)" d="M10.804 2.974c0.652-0.244 1.675 0.464 2.105 0.849-0.163 0-0.339 0.204-0.407 0.306-0.215-0.238-0.842-0.713-1.629-0.713-0.984 0-1.528 0.917-1.969 1.188s-0.645 0.917-1.052 1.392c-0.407 0.475 0.883 3.361 0.883 3.836s-0.339 1.086-0.339 1.494c0 0.407 0.95 0.509 1.528 0.95s0.102 1.018-0.883 1.426c-0.788 0.326-0.849 1.267-0.781 1.697-0.475-2.071 1.697-2.105 1.663-2.716s-1.29-0.713-1.528-0.984c-0.238-0.272-0.17-1.29-0.136-1.562s-0.102-1.29-0.407-1.901c-0.244-0.489-0.328-1.516-0.339-1.969-0.272 0.238-0.441 1.018-0.543 1.222s-1.867 1.562-1.867 2.139c0 0.577-0.95 1.901-1.426 2.342-0.38 0.353-0.679 0.917-0.781 1.154 0.034-0.339 0.204-0.951 0.475-1.29s1.12-1.256 1.324-2.342c0.204-1.086 1.833-1.765 1.833-2.444s0.645-2.173 1.086-2.274c0.441-0.102 1.46-1.12 1.731-1.494 0.217-0.299 1.064-0.328 1.46-0.306z"></path>
<path fill="#61472d" style="fill: var(--color3, #61472d)" d="M13.248 3.822c-0.353-0.027-0.645 0.283-0.747 0.441 1.765 0.306 1.595 3.768 1.562 5.364s-1.358 1.494-1.663 3.7c-0.306 2.207 0.713 2.987 1.358 3.802 0.516 0.652 1.143 0.588 1.392 0.475-0.713-0.034-3.021-2.919-2.037-4.040s1.426-1.731 1.426-2.003c0-0.272-0.306-0.441-0.136-1.324s0.679-1.188 0.747-1.765c0.068-0.577-0.781-1.731-0.747-2.648s-0.713-1.969-1.154-2.003z"></path>
</symbol>
<symbol id="cross" viewBox="0 0 32 32">
<path d="M4.686 27.314c6.248 6.248 16.379 6.248 22.627 0s6.248-16.379 0-22.627c-6.248-6.248-16.379-6.248-22.627 0s-6.248 16.379 0 22.627z"></path>
<path d="M25.944 20.64l-4.64-4.64 4.64-4.64c0.366-0.366 0.366-0.959 0-1.326l-3.977-3.977c-0.366-0.366-0.959-0.366-1.326 0l-4.64 4.64-4.64-4.64c-0.366-0.366-0.959-0.366-1.326 0l-3.977 3.977c-0.366 0.366-0.366 0.959 0 1.326l4.64 4.64-4.64 4.64c-0.366 0.366-0.366 0.959 0 1.326l3.977 3.977c0.366 0.366 0.959 0.366 1.326 0l4.64-4.64 4.64 4.64c0.366 0.366 0.959 0.366 1.326 0l3.977-3.977c0.366-0.366 0.366-0.959 0-1.326z"></path>
</symbol>
<symbol id="icon-donut" viewBox="0 0 32 32">
<path d="M16 0c-8.828 0-16 7.172-16 16s7.172 16 16 16c8.828 0 16-7.172 16-16s-7.172-16-16-16zM16 21.647c-3.106 0-5.647-2.541-5.647-5.647s2.541-5.647 5.647-5.647 5.647 2.541 5.647 5.647c0 3.106-2.541 5.647-5.647 5.647z"></path>
<path d="M28.235 16c0-0.753-0.226-1.864-1.205-2.974 0.282-1.45-0.056-2.504-0.433-3.144s-1.11-1.487-2.522-1.958c-0.471-1.412-1.318-2.146-1.958-2.522-0.885-0.508-1.958-0.659-3.143-0.433-1.111-0.979-2.221-1.205-2.974-1.205s-1.864 0.226-2.974 1.205c-1.186-0.226-2.259-0.075-3.143 0.433-0.64 0.376-1.487 1.111-1.958 2.522-1.412 0.489-2.146 1.318-2.522 1.958s-0.715 1.694-0.433 3.144c-0.979 1.111-1.205 2.221-1.205 2.974s0.226 1.864 1.205 2.974c-0.282 1.449 0.056 2.503 0.433 3.144s1.111 1.487 2.522 1.958c0.471 1.412 1.318 2.146 1.958 2.522 0.885 0.508 1.958 0.678 3.143 0.433 1.111 0.979 2.221 1.205 2.974 1.205s1.863-0.226 2.974-1.205c1.186 0.245 2.259 0.075 3.143-0.433 0.64-0.376 1.487-1.111 1.958-2.522 1.412-0.489 2.146-1.318 2.522-1.958s0.715-1.694 0.433-3.144c0.979-1.111 1.205-2.221 1.205-2.974zM12.179 8.546l2.108-0.132c0.565-0.019 0.96 0.358 0.997 0.885 0.019 0.508-0.377 0.96-0.885 0.998-0.174 0.011-2.010 0.122-2.165 0.132-0.489 0-0.903-0.395-0.941-0.885-0.038-0.527 0.358-0.979 0.885-0.998zM12.233 10.428c-0.012 0.001-0.011 0.001 0 0v0zM9.317 16.414c-0.208 0.417-0.709 0.669-1.261 0.433-0.471-0.245-0.659-0.809-0.433-1.261l0.941-1.882c0.244-0.47 0.809-0.659 1.261-0.433 0.471 0.245 0.659 0.809 0.433 1.261l-0.941 1.882zM12.762 23.304c-0.383 0.255-1.008 0.201-1.318-0.264l-1.148-1.751c-0.301-0.433-0.169-1.017 0.264-1.318 0.433-0.282 1.017-0.169 1.299 0.282l1.167 1.751c0.283 0.433 0.17 1.016-0.263 1.299zM11.294 16c0-2.598 2.108-4.706 4.706-4.706s4.706 2.108 4.706 4.706c0 2.598-2.108 4.706-4.706 4.706s-4.706-2.108-4.706-4.706zM17.654 23.586c-0.012 0.001-0.011 0.001 0 0v0zM19.821 23.454c-0.174 0.011-2.010 0.122-2.165 0.132-0.489 0-0.903-0.376-0.941-0.885-0.019-0.508 0.377-0.96 0.885-0.998l2.108-0.132c0.565-0.019 0.96 0.376 0.998 0.885 0.038 0.527-0.358 0.979-0.885 0.998zM21.44 12.028c-0.462 0.289-1.043 0.144-1.299-0.282l-1.167-1.751c-0.283-0.433-0.17-1.017 0.263-1.299s1.017-0.169 1.318 0.264l1.148 1.751c0.301 0.433 0.169 1.017-0.264 1.318zM24.376 16.414l-0.941 1.882c-0.209 0.417-0.709 0.669-1.261 0.433-0.471-0.245-0.659-0.809-0.433-1.261l0.941-1.882c0.244-0.47 0.809-0.659 1.261-0.433 0.471 0.245 0.659 0.809 0.433 1.261z"></path>
</symbol>
<symbol id="icon-Group-28" viewBox="0 0 20 32">
<path fill="#000" style="fill: var(--color9, #000)" opacity="0.7" d="M15.425 20.927c-0.044-0.518 0.286-1.057 0.901-1.237 0.907-0.266 1.929 0.397 1.842 1.279-0.098 0.994-1.422 1.337-2.241 0.783-0.315-0.213-0.476-0.515-0.502-0.825z"></path>
<path fill="#000" style="fill: var(--color9, #000)" opacity="0.7" d="M10.452 15.553c0.487 0.111 0.99 0.13 1.497 0.222 1.417 0.257 1.764 1.533 2.862 2.188 1.855 1.107 4.725-0.742 4.576-2.638-0.058-0.731-0.565-1.273-1.056-1.814-0.55-0.605-0.983-1.261-1.090-2.054-0.171-1.275 0.453-2.639-0.214-3.853-0.48-0.874-1.693-1.262-2.702-0.96-0.471 0.141-0.861 0.439-1.036 0.867-0.194 0.475 0.018 0.98-0.14 1.45-0.303 0.907-1.956 0.434-2.711 0.69-0.604 0.205-1.124 0.586-1.507 1.053-0.754 0.92-1.013 2.211-0.503 3.28 0.279 0.586 0.78 1.068 1.404 1.361 0.203 0.095 0.409 0.16 0.618 0.208z"></path>
<path fill="#000" style="fill: var(--color9, #000)" opacity="0.7" d="M1.537 19.44c0.084-1.030 0.468-2.019 1.236-2.826 0.892-0.937 2.328-1.508 3.683-1.149 1.205 0.32 1.77 1.306 2.056 2.342 0.296 1.071 0.393 2.228 1.316 3.043 1.061 0.936 2.631 0.895 3.929 1.382 0.782 0.293 1.586 0.842 1.391 1.702-0.164 0.725-0.874 1.337-1.521 1.737-1.236 0.762-2.75 1.181-4.241 1.209-2.539 0.047-5.027-1.083-6.472-2.984-0.948-1.247-1.506-2.897-1.378-4.456z"></path>
<path fill="#151b37" style="fill: var(--color10, #151b37)" d="M2.356 31.85c-0.15-0.791-0.3-1.582-0.45-2.373-0.022-0.115-0.043-0.23-0.065-0.344-0.004-0.019-0.027-0.032-0.047-0.032h-0.001c0.016 0.011 0.031 0.022 0.047 0.032-0.245-1.162-0.304-2.342-0.109-3.514 0.204-1.223 0.696-2.371 1.296-3.477 0.273-0.502 0.568-0.994 0.881-1.477 0.282-0.434 0.612-0.848 0.868-1.294 0.28-0.49 0.464-1.022 0.543-1.569 0.082-0.563 0.015-1.113-0.044-1.674-0.060-0.579-0.113-1.158-0.164-1.738-0.051-0.582-0.12-1.152-0.297-1.716-0.362-1.151-1.115-2.149-1.714-3.204-0.622-1.096-1.186-2.22-1.688-3.366-0.246-0.562-0.477-1.129-0.693-1.701-0.107-0.281-0.209-0.564-0.308-0.848-0.087-0.25-0.179-0.503-0.211-0.765-0.030-0.25-0.001-0.511 0.165-0.72 0.206-0.26 0.555-0.371 0.897-0.373 0.674-0.004 1.321 0.352 1.915 0.603 0.968 0.409 1.926 0.836 2.892 1.247 0.29 0.123 0.581 0.246 0.872 0.367 0.056 0.023 0.106-0.052 0.049-0.076-1.034-0.431-2.057-0.882-3.085-1.325-0.565-0.243-1.128-0.499-1.707-0.712-0.525-0.193-1.189-0.317-1.684 0.012-0.415 0.275-0.469 0.733-0.379 1.161 0.118 0.565 0.364 1.121 0.572 1.663 0.448 1.162 0.958 2.305 1.528 3.423 0.288 0.566 0.592 1.125 0.91 1.677s0.672 1.085 0.992 1.635c0.322 0.554 0.561 1.149 0.705 1.762s0.17 1.24 0.227 1.862c0.107 1.175 0.364 2.365-0.015 3.52-0.182 0.556-0.497 1.029-0.833 1.516-0.317 0.457-0.617 0.924-0.899 1.4-0.632 1.068-1.206 2.194-1.516 3.378-0.308 1.18-0.369 2.41-0.194 3.611 0.036 0.247 0.084 0.491 0.136 0.735 0.004 0.019 0.027 0.032 0.047 0.032h0.001c-0.016-0.011-0.031-0.021-0.047-0.032 0.15 0.791 0.3 1.582 0.45 2.373 0.022 0.115 0.044 0.229 0.065 0.344 0.011 0.056 0.104 0.032 0.094-0.023z"></path>
<path fill="#151b37" style="fill: var(--color10, #151b37)" d="M14.693 31.853c-0.003-0.879-0.13-1.765-0.255-2.635-0.13-0.908-0.366-1.791-0.62-2.677-0.285-0.993-0.575-1.986-0.755-3-0.095-0.536-0.159-1.078-0.169-1.622-0.005-0.26-0.024-0.55 0.027-0.807 0.004-0.021 0.008-0.034 0.014-0.054 0.069-0.221 0.175-0.438 0.261-0.654 0.195-0.49 0.391-0.98 0.586-1.47 0.673-1.687 1.345-3.373 2.018-5.060 0.189-0.474 0.402-0.94 0.6-1.41 0.424-1.006 0.834-2.017 1.227-3.033 0.485-1.253 0.946-2.514 1.356-3.788 0.364-1.131 0.707-2.279 0.895-3.447 0.074-0.461 0.205-1.045-0.008-1.486-0.176-0.362-0.562-0.618-0.995-0.661-0.314-0.031-0.644 0.057-0.942 0.138-0.747 0.202-1.467 0.493-2.169 0.798-0.714 0.311-1.418 0.647-2.096 1.019-0.239 0.131-0.476 0.266-0.702 0.416-0.050 0.033-0.002 0.11 0.049 0.076 0.523-0.347 1.098-0.635 1.667-0.914 0.738-0.36 1.493-0.695 2.269-0.982 0.336-0.124 0.677-0.24 1.025-0.333 0.34-0.091 0.714-0.188 1.066-0.1 0.536 0.134 0.847 0.586 0.836 1.076-0.005 0.209-0.024 0.418-0.050 0.626-0.142 1.122-0.463 2.227-0.8 3.311-0.391 1.258-0.837 2.501-1.307 3.736-0.404 1.060-0.826 2.115-1.265 3.163-0.213 0.509-0.431 1.016-0.65 1.522-0.316 0.728-0.59 1.473-0.883 2.209-0.319 0.801-0.639 1.602-0.958 2.403-0.355 0.89-0.709 1.78-1.064 2.669-0.154 0.386-0.116 0.811-0.099 1.217 0.043 1.015 0.255 2.017 0.514 3.003 0.249 0.948 0.55 1.884 0.782 2.836 0.225 0.925 0.339 1.872 0.43 2.815 0.035 0.365 0.067 0.732 0.068 1.098 0 0.057 0.097 0.057 0.097 0z"></path>
<path fill="#151b37" style="fill: var(--color10, #151b37)" d="M6.479 5.383c-0.319-0.062-0.638-0.124-0.957-0.185-0.509-0.099-1.018-0.197-1.527-0.296-0.117-0.023-0.234-0.045-0.351-0.068-0.037-0.007-0.081 0.031-0.055 0.065 0.278 0.351 0.555 0.701 0.833 1.051 0.42 0.531 0.841 1.061 1.261 1.592 0.096 0.121 0.186 0.25 0.294 0.363 0.211 0.221 0.524 0.356 0.846 0.367 0.105 0.004 0.212-0.004 0.317-0.007 0.357-0.010 0.714-0.021 1.071-0.031 0.128-0.004 0.253-0 0.364-0.072 0.102-0.066 0.165-0.171 0.171-0.285 0.004-0.067 0-0.136 0-0.203v-1.614c0-0.057-0.097-0.057-0.097 0v1.504c0 0.098 0.002 0.195 0 0.293-0.003 0.174-0.15 0.28-0.332 0.285-0.328 0.009-0.655 0.019-0.983 0.029-0.131 0.004-0.263 0.008-0.394 0.012-0.235 0.007-0.46-0.039-0.659-0.156-0.196-0.115-0.316-0.281-0.449-0.448-0.398-0.503-0.797-1.006-1.195-1.509-0.316-0.399-0.632-0.798-0.948-1.197-0.005-0.007-0.011-0.014-0.016-0.020-0.018 0.022-0.037 0.043-0.055 0.065 0.319 0.062 0.638 0.124 0.957 0.185 0.509 0.099 1.018 0.197 1.527 0.296 0.117 0.023 0.234 0.045 0.351 0.068 0.061 0.012 0.087-0.073 0.026-0.085z"></path>
<path fill="#151b37" style="fill: var(--color10, #151b37)" d="M11.793 5.919c-0.026 0.167-0.053 0.334-0.079 0.502-0.041 0.26-0.081 0.528-0.063 0.791 0.022 0.328 0.196 0.643 0.477 0.851 0.187 0.138 0.403 0.215 0.637 0.256 0.416 0.073 0.833 0.146 1.249 0.22 0.19 0.033 0.372 0.068 0.56-0.003 0.182-0.068 0.306-0.203 0.373-0.369 0.068-0.168 0.136-0.337 0.203-0.505 0.133-0.332 0.267-0.664 0.4-0.995 0.166-0.412 0.331-0.824 0.497-1.235s0.331-0.824 0.497-1.236c0.134-0.333 0.267-0.666 0.401-0.998 0.068-0.17 0.137-0.34 0.205-0.51 0.003-0.007 0.006-0.015 0.009-0.023 0.012-0.031-0.026-0.065-0.060-0.054-0.132 0.042-0.263 0.084-0.395 0.126-0.314 0.1-0.628 0.2-0.942 0.3-0.382 0.121-0.764 0.243-1.145 0.364-0.329 0.104-0.657 0.209-0.986 0.313-0.16 0.051-0.325 0.095-0.482 0.153-0.002 0.001-0.005 0.001-0.007 0.002-0.059 0.019-0.033 0.104 0.026 0.085 0.132-0.042 0.263-0.084 0.395-0.126 0.314-0.1 0.628-0.2 0.942-0.3 0.382-0.121 0.764-0.243 1.145-0.364 0.329-0.104 0.657-0.209 0.986-0.313 0.108-0.035 0.217-0.069 0.326-0.103 0.048-0.015 0.113-0.025 0.156-0.050 0.002-0.001 0.005-0.002 0.007-0.002-0.020-0.018-0.040-0.036-0.060-0.054-0.046 0.114-0.092 0.228-0.138 0.342-0.117 0.291-0.234 0.582-0.351 0.872-0.157 0.391-0.314 0.781-0.471 1.172-0.166 0.414-0.333 0.827-0.499 1.241-0.144 0.359-0.288 0.718-0.433 1.076-0.093 0.23-0.185 0.46-0.277 0.69-0.017 0.042-0.034 0.085-0.051 0.127-0.097 0.233-0.362 0.37-0.633 0.324-0.375-0.063-0.748-0.132-1.123-0.198-0.121-0.021-0.243-0.042-0.364-0.064-0.346-0.063-0.647-0.256-0.822-0.534-0.095-0.151-0.15-0.323-0.158-0.497-0.009-0.192 0.013-0.387 0.035-0.577 0.019-0.17 0.052-0.339 0.079-0.508 0.009-0.055 0.017-0.109 0.026-0.164s-0.085-0.079-0.094-0.023z"></path>
<path fill="#151b37" style="fill: var(--color10, #151b37)" d="M13.087 3.133c0.048 0.386 0.067 0.849-0.163 1.197-0.034 0.051-0.066 0.090-0.116 0.129 0.018-0.014-0.014 0.011-0.022 0.017-0.023 0.016-0.054 0.035-0.085 0.032-0.054-0.006-0.085-0.071-0.102-0.111-0.045-0.104-0.064-0.221-0.071-0.332-0.003-0.056-0.097-0.057-0.097 0 0.001 0.271 0.001 0.543 0.002 0.814 0 0.076-0.028 0.152-0.054 0.223-0.048 0.133-0.118 0.258-0.201 0.376-0.158 0.224-0.365 0.418-0.59 0.588-0.228 0.172-0.476 0.334-0.765 0.407-0.227 0.057-0.457 0.050-0.689 0.050-0.106 0-0.212 0-0.318-0.013-0.189-0.025-0.364-0.086-0.532-0.167-0.312-0.149-0.595-0.346-0.86-0.556-0.118-0.094-0.24-0.189-0.337-0.301-0.104-0.12-0.182-0.26-0.228-0.407-0.049-0.154-0.063-0.317-0.087-0.476s-0.049-0.316-0.075-0.474c-0.006-0.040-0.012-0.080-0.021-0.12-0.011-0.051-0.092-0.036-0.095 0.012-0.004 0.061-0.013 0.122-0.026 0.182-0.016 0.076-0.038 0.201-0.116 0.249-0.122 0.075-0.29-0.216-0.321-0.276-0.095-0.187-0.115-0.396-0.096-0.599 0.005-0.056-0.092-0.056-0.097 0-0.028 0.305 0.038 0.653 0.284 0.88 0.061 0.056 0.146 0.114 0.237 0.089 0.113-0.030 0.159-0.16 0.185-0.252 0.025-0.088 0.040-0.181 0.046-0.273-0.032 0.004-0.064 0.008-0.095 0.012 0.061 0.289 0.094 0.585 0.14 0.877 0.049 0.315 0.212 0.585 0.467 0.801s0.525 0.418 0.82 0.588c0.153 0.088 0.314 0.169 0.484 0.227 0.173 0.058 0.357 0.084 0.541 0.085 0.176 0.001 0.357 0.009 0.533-0.006 0.18-0.015 0.355-0.057 0.519-0.126 0.135-0.056 0.258-0.134 0.377-0.213 0.479-0.32 0.93-0.754 1.056-1.299 0.028-0.123 0.010-0.259 0.010-0.384-0-0.162-0.001-0.325-0.001-0.487 0-0.010 0-0.020-0-0.030h-0.097c0.010 0.165 0.090 0.676 0.391 0.494 0.184-0.112 0.277-0.327 0.327-0.515 0.080-0.297 0.072-0.61 0.034-0.912-0.007-0.056-0.104-0.056-0.097 0z"></path>
<path fill="#151b37" style="fill: var(--color10, #151b37)" d="M5.047 14.004c0.067 0.798 0.154 1.764 0.248 2.589 0.608-0.039 1.216-0.083 1.824-0.115 1.553-0.083 3.089-0.030 4.625 0.201 0.759 0.114 1.497 0.266 2.224 0.497 0.203 0.065 0.405 0.132 0.608 0.2 0.296-1.041 0.704-2.28 1.266-3.691-1.189-1.462-1.719-3.352-1.456-5.152-0.063 0.007-0.128 0.006-0.194-0.005l-1.491-0.262c-0.493-0.087-0.867-0.426-0.982-0.852-0.399-0.001-0.798 0.021-1.187 0.052-0.6 0.048-1.219 0.104-1.826 0.103v0.28c0 0.175-0.153 0.317-0.344 0.324l-1.45 0.042c-0.253 0.007-0.498-0.062-0.697-0.194 0.117 1.511-0.488 3.052-1.605 4.173 0.235 0.582 0.383 1.19 0.436 1.811z"></path>
<path fill="#151b37" style="fill: var(--color10, #151b37)" d="M14.371 28.888c-1.764 0.441-3.577 0.719-5.402 0.83-0.41 0.026-0.821 0.043-1.231 0.050-1.568 0.032-3.14-0.060-4.69-0.276-0.425-0.058-0.878-0.142-1.225-0.356h-0.002l-0.015-0.072c-0.398-1.819-0.251-3.71 0.477-5.443 0.364-0.866 0.81-1.691 1.255-2.422 0.456 0.271 0.99 0.425 1.523 0.533 0.796 0.161 1.608 0.268 2.413 0.385 1.728 0.252 3.214 0.462 4.965 0.307 0.119-0.010 0.281-0.042 0.455-0.080 0.156 2.318 1.19 4.689 1.476 6.543z"></path>
<path fill="#151b37" style="fill: var(--color10, #151b37)" d="M9.397 6.762c-0.008 0.221-0.016 0.443-0.024 0.664-0.002 0.057 0.095 0.057 0.097 0 0.008-0.221 0.016-0.443 0.024-0.664 0.002-0.057-0.095-0.057-0.097 0z"></path>
<path fill="#151b37" style="fill: var(--color10, #151b37)" d="M8.532 21.49c0.128-0.104 0.206-0.251 0.219-0.406 0.002-0.024-0.024-0.044-0.049-0.044-0.028 0-0.046 0.020-0.049 0.044-0.012 0.132-0.082 0.256-0.191 0.344-0.020 0.016-0.018 0.046 0 0.062 0.019 0.018 0.049 0.016 0.069 0z"></path>
<path fill="#000" style="fill: var(--color9, #000)" opacity="0.7" d="M0.92 8.276c-0.392-1.002-0.375-2.118-0.018-3.144 0.459-1.32 1.677-3.072 3.339-3.24 0.961-0.097 1.522 0.579 1.624 1.377 0.112 0.876-0.149 1.783 0.359 2.593 0.547 0.872 1.672 1.097 2.394 1.797 1.622 1.573-0.402 3.472-2.213 3.68-1.887 0.216-3.898-0.684-4.952-2.102-0.225-0.302-0.401-0.625-0.532-0.96z"></path>
<path fill="#151b37" style="fill: var(--color10, #151b37)" d="M10.424 4.854c-0.101 0.010-0.189 0.107-0.189 0.107-0.071-0.036-0.151-0.109-0.294-0.107-0.217 0.004-0.497 0.357-0.705 0.396 0.635-0.025 1.273-0.024 1.908 0.002-0.211-0.085-0.383-0.433-0.721-0.399z"></path>
<path fill="#151b37" style="fill: var(--color10, #151b37)" d="M10.854 5.171c-0.123-0.057-0.293-0.042-0.43-0.040-0.156 0.002-0.313 0.007-0.469 0.005-0.125-0.002-0.266-0.017-0.379 0.035-0.192 0.089-0.074 0.272 0.071 0.345 0.302 0.153 0.834 0.154 1.137 0 0.144-0.073 0.263-0.257 0.071-0.345z"></path>
<path fill="#fff" style="fill: var(--color11, #fff)" d="M9.845 5.201l0.023 0.025c0.015 0.043 0.069 0.063 0.117 0.073 0.21 0.044 0.439 0.010 0.623-0.093-0.237-0.102-0.524-0.104-0.763-0.005z"></path>
</symbol>
<symbol id="avocado" viewBox="0 0 32 32">
<path d="M6.345 0h19.795c3.504 0 6.345 2.841 6.345 6.345v19.795c0 3.504-2.841 6.345-6.345 6.345h-19.795c-3.504 0-6.345-2.841-6.345-6.345v-19.795c0-3.504 2.841-6.345 6.345-6.345z"></path>
<path fill="#272727" style="fill: var(--color2, #272727)" opacity="0.05" d="M23.951 28.408c0 0.972-3.458 1.761-7.725 1.761s-7.725-0.788-7.725-1.761c0-0.972 3.458-1.761 7.725-1.761s7.725 0.788 7.725 1.761z"></path>
<path fill="#58853e" style="fill: var(--color3, #58853e)" d="M25.409 19.066c0 5.063-4.104 9.168-9.168 9.168s-9.168-4.104-9.168-9.168c0-5.063 4.104-9.168 9.168-9.168s9.168 4.104 9.168 9.168z"></path>
<path fill="#58853e" style="fill: var(--color3, #58853e)" d="M21.258 7.378h-9.983l-3.509 8.204h16.951l-3.459-8.204z"></path>
<path fill="#58853e" style="fill: var(--color3, #58853e)" d="M21.851 9.874c0 3.071-2.5 5.56-5.585 5.56s-5.585-2.489-5.585-5.56c0-3.071 2.5-5.56 5.585-5.56s5.584 2.489 5.584 5.56z"></path>
<path fill="#9ccc65" style="fill: var(--color4, #9ccc65)" d="M24.569 18.912c0 4.739-3.739 8.58-8.352 8.58s-8.352-3.842-8.352-8.58c0-4.739 3.739-8.58 8.352-8.58s8.352 3.841 8.352 8.58z"></path>
<path fill="#9ccc65" style="fill: var(--color4, #9ccc65)" d="M20.787 7.973h-9.095l-3.197 7.678h15.443l-3.152-7.678z"></path>
<path fill="#9ccc65" style="fill: var(--color4, #9ccc65)" d="M21.327 10.309c0 2.874-2.278 5.204-5.088 5.204s-5.088-2.33-5.088-5.204c0-2.874 2.278-5.204 5.088-5.204s5.088 2.33 5.088 5.204z"></path>
<path fill="#e7f278" style="fill: var(--color5, #e7f278)" d="M23.087 18.504c0 3.954-3.075 7.16-6.869 7.16s-6.869-3.206-6.869-7.16 3.076-7.16 6.869-7.16c3.794 0 6.869 3.206 6.869 7.16z"></path>
<path fill="#e7f278" style="fill: var(--color5, #e7f278)" d="M19.976 9.376h-7.48l-2.629 6.407h12.702l-2.592-6.407z"></path>
<path fill="#e7f278" style="fill: var(--color5, #e7f278)" d="M20.42 11.325c0 2.398-1.874 4.342-4.185 4.342s-4.185-1.944-4.185-4.342c0-2.398 1.874-4.342 4.185-4.342s4.185 1.944 4.185 4.342z"></path>
<path fill="#784f41" style="fill: var(--color6, #784f41)" d="M20.27 19.796c0 2.252-1.825 4.077-4.077 4.077s-4.077-1.825-4.077-4.077c0-2.252 1.825-4.077 4.077-4.077s4.077 1.825 4.077 4.077z"></path>
<path fill="#000" style="fill: var(--color1, #000)" d="M14.357 11.985c0 0.492-0.399 0.892-0.892 0.892s-0.892-0.399-0.892-0.892c0-0.492 0.399-0.892 0.892-0.892s0.892 0.399 0.892 0.892z"></path>
<path fill="#fff" style="fill: var(--color7, #fff)" d="M14.052 11.638c0 0.156-0.127 0.283-0.283 0.283s-0.283-0.127-0.283-0.283c0-0.156 0.127-0.283 0.283-0.283s0.283 0.127 0.283 0.283z"></path>
<path fill="#fff" style="fill: var(--color7, #fff)" d="M13.531 11.986c0 0.084-0.068 0.152-0.152 0.152s-0.152-0.068-0.152-0.152c0-0.084 0.068-0.152 0.152-0.152s0.152 0.068 0.152 0.152z"></path>
<path fill="#000" style="fill: var(--color1, #000)" d="M19.532 11.985c0 0.492-0.399 0.892-0.892 0.892s-0.892-0.399-0.892-0.892c0-0.492 0.399-0.892 0.892-0.892s0.892 0.399 0.892 0.892z"></path>
<path fill="#fff" style="fill: var(--color7, #fff)" d="M19.228 11.638c0 0.156-0.127 0.283-0.283 0.283s-0.283-0.127-0.283-0.283c0-0.156 0.127-0.283 0.283-0.283s0.283 0.127 0.283 0.283z"></path>
<path fill="#fff" style="fill: var(--color7, #fff)" d="M18.706 11.986c0 0.084-0.068 0.152-0.152 0.152s-0.152-0.068-0.152-0.152c0-0.084 0.068-0.152 0.152-0.152s0.152 0.068 0.152 0.152z"></path>
<path fill="#d0dc5a" style="fill: var(--color8, #d0dc5a)" d="M13.618 13.312c0 0.216-0.292 0.391-0.652 0.391s-0.652-0.175-0.652-0.391c0-0.216 0.292-0.391 0.652-0.391s0.652 0.175 0.652 0.391z"></path>
<path fill="#d0dc5a" style="fill: var(--color8, #d0dc5a)" d="M19.924 13.312c0 0.216-0.292 0.391-0.652 0.391s-0.652-0.175-0.652-0.391c0-0.216 0.292-0.391 0.652-0.391s0.652 0.175 0.652 0.391z"></path>
<path fill="#9b6b5e" style="fill: var(--color9, #9b6b5e)" d="M18.879 18.4c-0.229 0.323-0.911 0.232-1.523-0.203s-0.922-1.049-0.693-1.371c0.229-0.323 0.911-0.232 1.523 0.203s0.922 1.049 0.693 1.371z"></path>
</symbol>
<symbol id="icon-moon" viewBox="0 0 32 32">
<path d="M9.406 24.048c8.086 0 14.64-6.555 14.64-14.641 0-3.583-1.291-6.861-3.427-9.406 6.6 2.119 11.38 8.301 11.38 15.606 0 9.054-7.339 16.393-16.393 16.393-7.304 0-13.487-4.78-15.606-11.38 2.545 2.137 5.824 3.428 9.406 3.428z"></path>
<path d="M8.205 6.4l1.689 3.423 3.777 0.548-2.733 2.664 0.644 3.761-3.377-1.776-3.378 1.776 0.644-3.761-2.733-2.664 3.777-0.548 1.69-3.423z"></path>
<path d="M17.73 5.305l0.875 1.775 1.958 0.284-1.417 1.381 0.335 1.949-1.751-0.92-1.751 0.92 0.335-1.949-1.417-1.381 1.958-0.284 0.875-1.775z"></path>
</symbol>
<symbol id="icon-pizza" viewBox="0 0 32 32">
<path d="M31.194 19.008l-12.978-1.854c-0.288-0.042-0.586 0.058-0.795 0.265s-0.308 0.504-0.266 0.796l1.855 12.979c0.075 0.517 0.555 0.869 1.060 0.796 2.32-0.33 4.556-1.265 6.462-2.705 0.407-0.308 0.492-0.884 0.194-1.298-0.605-0.835 0.302-1.961 1.263-1.262 0.414 0.298 0.989 0.212 1.298-0.195 1.439-1.909 2.375-4.144 2.703-6.462 0.073-0.513-0.284-0.987-0.796-1.060zM14.685 15.676c-0.095-0.66 0.471-1.226 1.131-1.132l11.138 1.591c0.367 0.047 1.010-0.33 1.084-1.007 0.044-0.398 0.086-0.798 0.086-1.209 0-6.957-5.197-12.936-12.085-13.909-0.26-0.042-0.516 0.034-0.718 0.197-0.201 0.161-0.328 0.399-0.348 0.657-0.040 0.494-0.432 0.867-0.912 0.867s-0.872-0.373-0.912-0.867c-0.020-0.258-0.147-0.496-0.348-0.657s-0.461-0.238-0.718-0.197c-6.888 0.972-12.085 6.952-12.085 13.909 0 7.755 6.308 14.063 14.063 14.063 0.416 0 0.818-0.043 1.39-0.107 0.516-0.056 0.9-0.527 0.826-1.065l-1.593-11.135z"></path>
<path d="M23.709 20.895c-0.518 0-0.938 0.42-0.938 0.938s0.42 0.938 0.938 0.938c0.518 0 0.938-0.42 0.938-0.938s-0.42-0.938-0.938-0.938zM10.313 20.483c-0.518 0-0.938 0.42-0.938 0.938s0.42 0.938 0.938 0.938c0.518 0 0.938-0.42 0.938-0.938s-0.42-0.938-0.938-0.938zM15.938 5.483c-0.518 0-0.938 0.42-0.938 0.938s0.42 0.938 0.938 0.938c0.518 0 0.938-0.42 0.938-0.938s-0.42-0.938-0.938-0.938zM19.687 9.233c-0.518 0-0.938 0.42-0.938 0.938s0.42 0.937 0.938 0.937c0.518 0 0.938-0.42 0.938-0.937s-0.42-0.938-0.938-0.938zM6.563 14.857c-0.518 0-0.938 0.42-0.938 0.938s0.42 0.938 0.938 0.938 0.938-0.42 0.938-0.938c0-0.518-0.42-0.938-0.938-0.938zM8.438 7.358c-1.551 0-2.813 1.262-2.813 2.813s1.262 2.812 2.813 2.812 2.813-1.262 2.813-2.812c0-1.551-1.262-2.813-2.813-2.813z"></path>
</symbol>
<symbol id="icon-salt" viewBox="0 0 32 32">
<path d="M19.75 17.875c-1.051 0-1.875 0.824-1.875 1.875s0.824 1.875 1.875 1.875c1.051 0 1.875-0.824 1.875-1.875s-0.824-1.875-1.875-1.875zM19.75 23.5c-1.051 0-1.875 0.824-1.875 1.875s0.824 1.875 1.875 1.875 1.875-0.824 1.875-1.875c0-1.051-0.824-1.875-1.875-1.875zM16 25.375c-1.051 0-1.875 0.824-1.875 1.875s0.824 1.938 1.875 1.938c1.051 0 1.875-0.887 1.875-1.938s-0.824-1.875-1.875-1.875zM12.25 21.625c-1.051 0-1.875 0.824-1.875 1.875s0.824 1.875 1.875 1.875 1.875-0.824 1.875-1.875c0-1.051-0.824-1.875-1.875-1.875zM16 23.5c1.051 0 1.875-0.824 1.875-1.875s-0.824-1.875-1.875-1.875-1.875 0.824-1.875 1.875c0 1.051 0.824 1.875 1.875 1.875zM22.562 7.656v-2.969c0-0.525-0.412-0.938-0.938-0.938h-11.25c-0.525 0-0.938 0.412-0.938 0.938v2.969c-2.138 0.431-3.75 2.325-3.75 4.594v4.125l6.637 0.965c-0.048 0.169-0.075 0.348-0.075 0.535 0 1.051 0.824 1.875 1.875 1.875s1.875-0.824 1.875-1.875l10.313-1.5v-4.125c0-2.269-1.613-4.162-3.75-4.594z"></path>
<path d="M10.375 5.625h11.25c1.551 0 2.813-1.262 2.813-2.813s-1.262-2.813-2.813-2.813h-11.25c-1.551 0-2.813 1.262-2.813 2.813s1.262 2.813 2.813 2.813zM16 14.125c-2.673 0-6.167 0.592-10.313 2.25v12.812c0 1.556 1.256 2.812 2.813 2.812h15c1.556 0 2.813-1.256 2.813-2.812v-12.812c-4.142-1.657-7.648-2.25-10.313-2.25zM12.25 24.438c-0.525 0-0.938-0.412-0.938-0.938s0.412-0.938 0.938-0.938c0.525 0 0.938 0.412 0.938 0.938s-0.412 0.938-0.938 0.938zM14.125 18.812c-0.525 0-0.938-0.412-0.938-0.938s0.412-0.938 0.938-0.938c0.525 0 0.938 0.412 0.938 0.938s-0.412 0.938-0.938 0.938zM16 28.188c-0.525 0-0.938-0.412-0.938-0.938s0.412-0.938 0.938-0.938 0.938 0.412 0.938 0.938c0 0.525-0.412 0.938-0.938 0.938zM16 22.562c-0.525 0-0.938-0.412-0.938-0.938s0.412-0.938 0.938-0.938 0.938 0.412 0.938 0.938c0 0.525-0.412 0.938-0.938 0.938zM19.75 26.313c-0.525 0-0.938-0.412-0.938-0.938s0.412-0.938 0.938-0.938c0.525 0 0.938 0.412 0.938 0.938s-0.412 0.938-0.938 0.938zM19.75 20.687c-0.525 0-0.938-0.412-0.938-0.938s0.412-0.938 0.938-0.938c0.525 0 0.938 0.412 0.938 0.938s-0.412 0.938-0.938 0.938z"></path>
</symbol>
<symbol id="icon-soda" viewBox="0 0 32 32">
<path d="M7.562 5.625h16.875c0.324 0 0.626-0.168 0.798-0.445 0.17-0.277 0.185-0.622 0.040-0.912l-1.875-3.75c-0.159-0.318-0.483-0.518-0.839-0.518h-13.125c-0.355 0-0.679 0.201-0.839 0.518l-1.875 3.75c-0.145 0.29-0.13 0.635 0.040 0.912 0.172 0.277 0.474 0.445 0.798 0.445zM24.437 7.625h-16.875c-0.262 0-0.513 0.11-0.69 0.303s-0.266 0.451-0.244 0.712l1.875 22.5c0.040 0.486 0.447 0.86 0.934 0.86h13.125c0.487 0 0.894-0.374 0.934-0.86l1.875-22.5c0.022-0.261-0.066-0.52-0.244-0.712s-0.428-0.303-0.69-0.303z"></path>
<path d="M26.313 3.75h-20.625c-0.518 0-0.938 0.419-0.938 0.938v3.875c0 0.518 0.419 0.938 0.938 0.938h20.625c0.518 0 0.938-0.419 0.938-0.938v-3.875c0-0.518-0.419-0.938-0.938-0.938zM16 15.125c-2.067 0-3.75 1.682-3.75 3.75s1.683 3.75 3.75 3.75c2.067 0 3.75-1.682 3.75-3.75s-1.683-3.75-3.75-3.75z"></path>


<use xlink:href="#paint0_linear_438_304"></use>

</symbol>
<symbol id="back" viewBox="0 0 31 32">
<path d="M0 15.643c0 0.472 0.163 0.862 0.563 1.243l6.823 6.677c0.29 0.29 0.635 0.426 1.043 0.426 0.844 0 1.524-0.68 1.524-1.506 0-0.426-0.172-0.807-0.49-1.116l-5.915-5.734 5.915-5.716c0.318-0.318 0.49-0.699 0.49-1.116 0-0.826-0.68-1.506-1.524-1.506-0.408 0-0.753 0.145-1.043 0.426l-6.823 6.677c-0.39 0.381-0.563 0.762-0.563 1.243z"></path>
</symbol>
  <defs>
<linearGradient id="paint0_linear_438_304" x1="15" y1="30" x2="15" y2="0" gradientUnits="userSpaceOnUse">
<stop stop-color="#A93AFF"/>
<stop offset="1" stop-color="#FF81FF"/>
</linearGradient>
<linearGradient id="paint1_linear_438_304" x1="15" y1="21.2109" x2="15" y2="3.51562" gradientUnits="userSpaceOnUse">
<stop stop-color="#FFBEF9"/>
<stop offset="1" stop-color="#FFF1FF"/>
</linearGradient>
<clipPath id="clip0_438_304">
<rect width="30" height="30" fill="white"/>
</clipPath>
</defs>
</defs>

</svg>
